<svg width="27" height="27" viewBox="0 0 27 27" fill="none" xmlns="http://www.w3.org/2000/svg">
<path d="M0 25.418H25.1185V26.9999H0V25.418Z" fill="#3B4A5B"/>
<path d="M22.0139 10.3286L12.596 1L12.5857 1.01029L3.17785 10.2657L1.86084 12.3643H2.68222V26H12.5857H22.4891V12.3643H23.2588L22.0139 10.3286Z" fill="#3B4A5B"/>
<path d="M22.4535 12.3643H23.2587L21.9565 10.3286L12.1053 1L12.0945 1.01029V26H22.4535V12.3643Z" fill="#3B4A5B"/>
<path d="M12.0941 0L0 13H0.000330984L12.0945 0.000379167L12.0941 0Z" fill="#3B4A5B"/>
<path d="M12.5595 0.0104L12.5495 0L0 13H2.14582L12.5595 2.2211L12.5696 2.2106L22.9231 13H25.1194L12.5595 0.0104Z" fill="#3B4A5B"/>
<path d="M22.8417 13H25.1194L12.0945 0V2.21247L12.1049 2.20196L22.8417 13Z" fill="#3B4A5B"/>
<path d="M23.7473 14H26.0249L13 1V3.21247L13.0104 3.20196L23.7473 14Z" fill="#3B4A5B"/>
</svg>
