<svg width="25" height="25" viewBox="0 0 25 25" fill="none" xmlns="http://www.w3.org/2000/svg">
<g clip-path="url(#clip0)">
<path d="M21.6111 10.8453L12.51 2.26031L12.5 2.26979L3.40863 10.7875L2.13593 12.7188H2.92968V25.2676H12.5H22.0703V12.7188H22.8142L21.6111 10.8453Z" fill="white"/>
<path d="M22.0703 12.7188H22.8142L21.6111 10.8453L12.51 2.26031L12.5 2.26979V25.2676H22.0703V12.7188Z" fill="white"/>
<path d="M7.37305 11.2539V21.5078H17.6758V11.2539H7.37305Z" fill="white"/>
<path d="M12.5 11.2539H17.6758V21.5078H12.5V11.2539Z" fill="white"/>
<path d="M20.6055 9.78906L17.6758 6.85937V3.92969H20.6055V9.78906Z" fill="white"/>
<path d="M12.4893 1L0 12.7187H0.000341797L12.4896 1.00034L12.4893 1Z" fill="white"/>
<path d="M8.83789 12.7188H11.7676V15.6484H8.83789V12.7188Z" fill="white"/>
<path d="M13.2324 12.7188H16.2109V15.6484H13.2324V12.7188Z" fill="white"/>
<path d="M8.83789 17.1133H11.7676V20.043H8.83789V17.1133Z" fill="white"/>
<path d="M13.2324 17.1133H16.2109V20.043H13.2324V17.1133Z" fill="white"/>
<path d="M12.5012 1.00937L12.4912 1L12.4909 1.00034L0.00158691 12.7187H2.13718L12.5012 3.0022L12.5113 2.99272L22.8154 12.7187H25.0013L12.5012 1.00937Z" fill="white"/>
<path d="M22.8142 12.7188H25L12.5 1.00938V3.00221L12.51 2.99273L22.8142 12.7188Z" fill="white"/>
</g>
<defs>
<clipPath id="clip0">
<rect width="25" height="25" fill="white"/>
</clipPath>
</defs>
</svg>
