<svg width="206" height="68" viewBox="0 0 206 68" fill="none" xmlns="http://www.w3.org/2000/svg">
<path d="M105 43.418H131.999V45H105V43.418Z" fill="#0EA45C" fill-opacity="0.35"/>
<path d="M128.662 28.3286L118.539 19L118.528 19.0103L108.416 28.2657L107 30.3643H107.883V44H118.528H129.173V30.3643H130L128.662 28.3286Z" fill="#0EA45C" fill-opacity="0.35"/>
<path d="M129.135 30.3643H130L128.6 28.3286L118.012 19L118 19.0103V44H129.135V30.3643Z" fill="#0EA45C" fill-opacity="0.35"/>
<path d="M118 18L105 31H105L118 18.0004L118 18Z" fill="#0EA45C" fill-opacity="0.35"/>
<path d="M118.5 18.0104L118.489 18L118.489 18.0004L105 31H107.306L118.5 20.2211L118.511 20.2106L129.639 31H132L118.5 18.0104Z" fill="#0EA45C" fill-opacity="0.35"/>
<path d="M129.552 31H132L118 18V20.2125L118.011 20.202L129.552 31Z" fill="#0EA45C" fill-opacity="0.35"/>
<path d="M192 43H206V45H192V43Z" fill="#0EA45C" fill-opacity="0.35"/>
<path d="M135.945 41.955H136.855C137.345 41.955 137.695 41.85 137.905 41.64C138.115 41.4067 138.22 41.0567 138.22 40.59V26.695C138.22 26.2517 138.115 25.925 137.905 25.715C137.695 25.505 137.345 25.4 136.855 25.4H135.945V22.355H153.165V27.325H148.965V26.695C148.965 25.8317 148.51 25.4 147.6 25.4H142.84V32.12H148.23V35.2H142.84V40.66C142.84 41.1033 142.945 41.43 143.155 41.64C143.365 41.85 143.692 41.955 144.135 41.955H145.08V45H135.945V41.955ZM153.821 41.955H154.731C155.221 41.955 155.571 41.85 155.781 41.64C155.991 41.4067 156.096 41.0567 156.096 40.59V26.345C156.096 25.8317 156.003 25.4583 155.816 25.225C155.653 24.9917 155.314 24.875 154.801 24.875H153.821V21.83H160.681V40.66C160.681 41.1033 160.774 41.43 160.961 41.64C161.171 41.85 161.509 41.955 161.976 41.955H162.886V45H153.821V41.955ZM173.412 45.525C170.612 45.525 168.407 44.79 166.797 43.32C165.21 41.8267 164.417 39.645 164.417 36.775C164.417 33.7417 165.175 31.4667 166.692 29.95C168.208 28.4333 170.367 27.675 173.167 27.675C175.873 27.675 177.927 28.4333 179.327 29.95C180.75 31.4433 181.462 33.4733 181.462 36.04V37.685H168.967C168.967 39.3183 169.352 40.52 170.122 41.29C170.892 42.0367 172 42.41 173.447 42.41C174.893 42.41 176.048 42.2233 176.912 41.85V40.625H180.867V43.285C179.093 44.7783 176.608 45.525 173.412 45.525ZM176.912 35.06C176.912 33.6133 176.597 32.54 175.967 31.84C175.337 31.14 174.38 30.79 173.097 30.79C171.767 30.79 170.74 31.1633 170.017 31.91C169.317 32.6333 168.967 33.6833 168.967 35.06H176.912ZM182.114 41.955H183.199C183.735 41.955 184.155 41.885 184.459 41.745C184.762 41.5817 185.065 41.3017 185.369 40.905L188.694 36.565L185.369 32.295C185.065 31.8983 184.762 31.63 184.459 31.49C184.155 31.3267 183.735 31.245 183.199 31.245H182.114V28.2H189.779V31.245H188.904L191.179 34.29L193.454 31.245H192.579V28.2H200.244V31.245H199.159C198.622 31.245 198.202 31.3267 197.899 31.49C197.595 31.63 197.292 31.8983 196.989 32.295L193.629 36.565L196.989 40.905C197.292 41.3017 197.595 41.5817 197.899 41.745C198.202 41.885 198.622 41.955 199.159 41.955H200.244V45H192.579V41.955H193.454L191.179 38.875L188.904 41.955H189.779V45H182.114V41.955Z" fill="#474747"/>
<path d="M0.945 41.955H1.855C2.345 41.955 2.695 41.85 2.905 41.64C3.115 41.4067 3.22 41.0567 3.22 40.59V26.695C3.22 26.2517 3.115 25.925 2.905 25.715C2.695 25.505 2.345 25.4 1.855 25.4H0.945V22.355H10.01V25.4H9.1C8.63333 25.4 8.295 25.505 8.085 25.715C7.89833 25.925 7.805 26.2517 7.805 26.695V40.66C7.805 41.1033 7.89833 41.43 8.085 41.64C8.295 41.85 8.63333 41.955 9.1 41.955H10.01V45H0.945V41.955ZM11.9167 41.955H12.8267C13.3167 41.955 13.6667 41.85 13.8767 41.64C14.0867 41.4067 14.1917 41.0567 14.1917 40.59V32.54C14.1917 32.0967 14.0867 31.77 13.8767 31.56C13.69 31.35 13.3633 31.245 12.8967 31.245H11.9167V28.2H17.0617L17.3067 30.58C18.6133 28.6433 20.62 27.675 23.3267 27.675C24.33 27.675 25.205 27.8967 25.9517 28.34C26.6983 28.7833 27.2933 29.4017 27.7367 30.195C28.3433 29.3317 29.0667 28.7017 29.9067 28.305C30.77 27.885 31.7967 27.675 32.9867 27.675C34.97 27.675 36.3933 28.165 37.2567 29.145C38.1433 30.1017 38.5867 31.5483 38.5867 33.485V40.66C38.5867 41.1033 38.68 41.43 38.8667 41.64C39.0767 41.85 39.415 41.955 39.8817 41.955H40.7917V45H34.0017V33.485C34.0017 32.4583 33.8033 31.735 33.4067 31.315C33.01 30.8717 32.3683 30.65 31.4817 30.65C30.525 30.65 29.79 30.9067 29.2767 31.42C28.7867 31.9333 28.5417 32.7033 28.5417 33.73V40.66C28.5417 41.1033 28.635 41.43 28.8217 41.64C29.0317 41.85 29.37 41.955 29.8367 41.955H30.9217V45H24.2367V33.555C24.2367 32.5517 24.0383 31.8167 23.6417 31.35C23.245 30.8833 22.6267 30.65 21.7867 30.65C20.7833 30.65 20.0133 30.9183 19.4767 31.455C18.9633 31.9917 18.7067 32.8083 18.7067 33.905V40.66C18.7067 41.1033 18.8 41.43 18.9867 41.64C19.1967 41.85 19.535 41.955 20.0017 41.955H20.9817V45H11.9167V41.955ZM51.1566 45.525C48.2866 45.525 46.0933 44.755 44.5766 43.215C43.0833 41.675 42.3366 39.4817 42.3366 36.635C42.3366 33.765 43.0833 31.56 44.5766 30.02C46.0699 28.4567 48.2633 27.675 51.1566 27.675C54.0733 27.675 56.2666 28.4567 57.7366 30.02C59.2299 31.56 59.9766 33.765 59.9766 36.635C59.9766 39.4817 59.2183 41.675 57.7016 43.215C56.2083 44.755 54.0266 45.525 51.1566 45.525ZM51.1566 42.41C52.6266 42.41 53.6999 41.9433 54.3766 41.01C55.0766 40.0767 55.4266 38.6183 55.4266 36.635C55.4266 34.6283 55.0766 33.1583 54.3766 32.225C53.6999 31.2683 52.6266 30.79 51.1566 30.79C49.6866 30.79 48.6016 31.2683 47.9016 32.225C47.2249 33.1583 46.8866 34.6283 46.8866 36.635C46.8866 38.6183 47.2249 40.0767 47.9016 41.01C48.6016 41.9433 49.6866 42.41 51.1566 42.41ZM72.7155 45.525C71.3155 45.525 70.1255 45.28 69.1455 44.79C68.1888 44.2767 67.3722 43.4833 66.6955 42.41L66.4155 45H62.9155V26.38C62.9155 25.8667 62.8222 25.4933 62.6355 25.26C62.4722 25.0267 62.1338 24.91 61.6205 24.91H60.9905V21.83H67.3955V29.915C68.1422 29.1217 68.9705 28.55 69.8805 28.2C70.8138 27.85 71.8872 27.675 73.1005 27.675C75.5038 27.675 77.3238 28.445 78.5605 29.985C79.7972 31.525 80.4155 33.7533 80.4155 36.67C80.4155 39.4467 79.7155 41.6167 78.3155 43.18C76.9155 44.7433 75.0488 45.525 72.7155 45.525ZM71.8755 42.795C73.2755 42.795 74.2905 42.2933 74.9205 41.29C75.5738 40.2867 75.9005 38.735 75.9005 36.635C75.9005 34.535 75.5738 33.0183 74.9205 32.085C74.2905 31.1283 73.2288 30.65 71.7355 30.65C70.4988 30.65 69.4955 31.0933 68.7255 31.98C67.9788 32.8667 67.6055 34.0917 67.6055 35.655V37.615C67.6055 39.0617 68.0022 40.2867 68.7955 41.29C69.5888 42.2933 70.6155 42.795 71.8755 42.795ZM91.2877 45.525C88.4877 45.525 86.2827 44.79 84.6727 43.32C83.086 41.8267 82.2927 39.645 82.2927 36.775C82.2927 33.7417 83.051 31.4667 84.5677 29.95C86.0843 28.4333 88.2427 27.675 91.0427 27.675C93.7493 27.675 95.8027 28.4333 97.2027 29.95C98.626 31.4433 99.3377 33.4733 99.3377 36.04V37.685H86.8427C86.8427 39.3183 87.2277 40.52 87.9977 41.29C88.7677 42.0367 89.876 42.41 91.3227 42.41C92.7693 42.41 93.9243 42.2233 94.7877 41.85V40.625H98.7427V43.285C96.9693 44.7783 94.4843 45.525 91.2877 45.525ZM94.7877 35.06C94.7877 33.6133 94.4727 32.54 93.8427 31.84C93.2127 31.14 92.256 30.79 90.9727 30.79C89.6427 30.79 88.616 31.1633 87.8927 31.91C87.1927 32.6333 86.8427 33.6833 86.8427 35.06H94.7877Z" fill="#474747"/>
</svg>
