<svg width="233" height="68" viewBox="0 0 233 68" fill="none" xmlns="http://www.w3.org/2000/svg">
<path d="M121 43.418H147.999V45H121V43.418Z" fill="#0EA45C" fill-opacity="0.35"/>
<path d="M144.662 28.3286L134.539 19L134.528 19.0103L124.416 28.2657L123 30.3643H123.883V44H134.528H145.173V30.3643H146L144.662 28.3286Z" fill="#0EA45C" fill-opacity="0.35"/>
<path d="M145.135 30.3643H146L144.6 28.3286L134.012 19L134 19.0103V44H145.135V30.3643Z" fill="#0EA45C" fill-opacity="0.35"/>
<path d="M134 18L121 31H121L134 18.0004L134 18Z" fill="#0EA45C" fill-opacity="0.35"/>
<path d="M134.5 18.0104L134.489 18L134.489 18.0004L121 31H123.306L134.5 20.2211L134.511 20.2106L145.639 31H148L134.5 18.0104Z" fill="#0EA45C" fill-opacity="0.35"/>
<path d="M145.552 31H148L134 18V20.2125L134.011 20.202L145.552 31Z" fill="#0EA45C" fill-opacity="0.35"/>
<path d="M208 43H222V45H208V43Z" fill="#0EA45C" fill-opacity="0.35"/>
<path d="M151.945 41.955H152.855C153.345 41.955 153.695 41.85 153.905 41.64C154.115 41.4067 154.22 41.0567 154.22 40.59V26.695C154.22 26.2517 154.115 25.925 153.905 25.715C153.695 25.505 153.345 25.4 152.855 25.4H151.945V22.355H169.165V27.325H164.965V26.695C164.965 25.8317 164.51 25.4 163.6 25.4H158.84V32.12H164.23V35.2H158.84V40.66C158.84 41.1033 158.945 41.43 159.155 41.64C159.365 41.85 159.692 41.955 160.135 41.955H161.08V45H151.945V41.955ZM169.821 41.955H170.731C171.221 41.955 171.571 41.85 171.781 41.64C171.991 41.4067 172.096 41.0567 172.096 40.59V26.345C172.096 25.8317 172.003 25.4583 171.816 25.225C171.653 24.9917 171.314 24.875 170.801 24.875H169.821V21.83H176.681V40.66C176.681 41.1033 176.774 41.43 176.961 41.64C177.171 41.85 177.509 41.955 177.976 41.955H178.886V45H169.821V41.955ZM189.412 45.525C186.612 45.525 184.407 44.79 182.797 43.32C181.21 41.8267 180.417 39.645 180.417 36.775C180.417 33.7417 181.175 31.4667 182.692 29.95C184.208 28.4333 186.367 27.675 189.167 27.675C191.873 27.675 193.927 28.4333 195.327 29.95C196.75 31.4433 197.462 33.4733 197.462 36.04V37.685H184.967C184.967 39.3183 185.352 40.52 186.122 41.29C186.892 42.0367 188 42.41 189.447 42.41C190.893 42.41 192.048 42.2233 192.912 41.85V40.625H196.867V43.285C195.093 44.7783 192.608 45.525 189.412 45.525ZM192.912 35.06C192.912 33.6133 192.597 32.54 191.967 31.84C191.337 31.14 190.38 30.79 189.097 30.79C187.767 30.79 186.74 31.1633 186.017 31.91C185.317 32.6333 184.967 33.6833 184.967 35.06H192.912ZM198.114 41.955H199.199C199.735 41.955 200.155 41.885 200.459 41.745C200.762 41.5817 201.065 41.3017 201.369 40.905L204.694 36.565L201.369 32.295C201.065 31.8983 200.762 31.63 200.459 31.49C200.155 31.3267 199.735 31.245 199.199 31.245H198.114V28.2H205.779V31.245H204.904L207.179 34.29L209.454 31.245H208.579V28.2H216.244V31.245H215.159C214.622 31.245 214.202 31.3267 213.899 31.49C213.595 31.63 213.292 31.8983 212.989 32.295L209.629 36.565L212.989 40.905C213.292 41.3017 213.595 41.5817 213.899 41.745C214.202 41.885 214.622 41.955 215.159 41.955H216.244V45H208.579V41.955H209.454L207.179 38.875L204.904 41.955H205.779V45H198.114V41.955Z" fill="#474747"/>
<path d="M16.945 41.955H17.855C18.345 41.955 18.695 41.85 18.905 41.64C19.115 41.4067 19.22 41.0567 19.22 40.59V26.695C19.22 26.2517 19.115 25.925 18.905 25.715C18.695 25.505 18.345 25.4 17.855 25.4H16.945V22.355H26.01V25.4H25.1C24.6333 25.4 24.295 25.505 24.085 25.715C23.8983 25.925 23.805 26.2517 23.805 26.695V40.66C23.805 41.1033 23.8983 41.43 24.085 41.64C24.295 41.85 24.6333 41.955 25.1 41.955H26.01V45H16.945V41.955ZM27.9167 41.955H28.8267C29.3167 41.955 29.6667 41.85 29.8767 41.64C30.0867 41.4067 30.1917 41.0567 30.1917 40.59V32.54C30.1917 32.0967 30.0867 31.77 29.8767 31.56C29.69 31.35 29.3633 31.245 28.8967 31.245H27.9167V28.2H33.0617L33.3067 30.58C34.6133 28.6433 36.62 27.675 39.3267 27.675C40.33 27.675 41.205 27.8967 41.9517 28.34C42.6983 28.7833 43.2933 29.4017 43.7367 30.195C44.3433 29.3317 45.0667 28.7017 45.9067 28.305C46.77 27.885 47.7967 27.675 48.9867 27.675C50.97 27.675 52.3933 28.165 53.2567 29.145C54.1433 30.1017 54.5867 31.5483 54.5867 33.485V40.66C54.5867 41.1033 54.68 41.43 54.8667 41.64C55.0767 41.85 55.415 41.955 55.8817 41.955H56.7917V45H50.0017V33.485C50.0017 32.4583 49.8033 31.735 49.4067 31.315C49.01 30.8717 48.3683 30.65 47.4817 30.65C46.525 30.65 45.79 30.9067 45.2767 31.42C44.7867 31.9333 44.5417 32.7033 44.5417 33.73V40.66C44.5417 41.1033 44.635 41.43 44.8217 41.64C45.0317 41.85 45.37 41.955 45.8367 41.955H46.9217V45H40.2367V33.555C40.2367 32.5517 40.0383 31.8167 39.6417 31.35C39.245 30.8833 38.6267 30.65 37.7867 30.65C36.7833 30.65 36.0133 30.9183 35.4767 31.455C34.9633 31.9917 34.7067 32.8083 34.7067 33.905V40.66C34.7067 41.1033 34.8 41.43 34.9867 41.64C35.1967 41.85 35.535 41.955 36.0017 41.955H36.9817V45H27.9167V41.955ZM67.1566 45.525C64.2866 45.525 62.0933 44.755 60.5766 43.215C59.0833 41.675 58.3366 39.4817 58.3366 36.635C58.3366 33.765 59.0833 31.56 60.5766 30.02C62.0699 28.4567 64.2633 27.675 67.1566 27.675C70.0733 27.675 72.2666 28.4567 73.7366 30.02C75.2299 31.56 75.9766 33.765 75.9766 36.635C75.9766 39.4817 75.2183 41.675 73.7016 43.215C72.2083 44.755 70.0266 45.525 67.1566 45.525ZM67.1566 42.41C68.6266 42.41 69.6999 41.9433 70.3766 41.01C71.0766 40.0767 71.4266 38.6183 71.4266 36.635C71.4266 34.6283 71.0766 33.1583 70.3766 32.225C69.6999 31.2683 68.6266 30.79 67.1566 30.79C65.6866 30.79 64.6016 31.2683 63.9016 32.225C63.2249 33.1583 62.8866 34.6283 62.8866 36.635C62.8866 38.6183 63.2249 40.0767 63.9016 41.01C64.6016 41.9433 65.6866 42.41 67.1566 42.41ZM88.7155 45.525C87.3155 45.525 86.1255 45.28 85.1455 44.79C84.1888 44.2767 83.3722 43.4833 82.6955 42.41L82.4155 45H78.9155V26.38C78.9155 25.8667 78.8222 25.4933 78.6355 25.26C78.4722 25.0267 78.1338 24.91 77.6205 24.91H76.9905V21.83H83.3955V29.915C84.1422 29.1217 84.9705 28.55 85.8805 28.2C86.8138 27.85 87.8872 27.675 89.1005 27.675C91.5038 27.675 93.3238 28.445 94.5605 29.985C95.7972 31.525 96.4155 33.7533 96.4155 36.67C96.4155 39.4467 95.7155 41.6167 94.3155 43.18C92.9155 44.7433 91.0488 45.525 88.7155 45.525ZM87.8755 42.795C89.2755 42.795 90.2905 42.2933 90.9205 41.29C91.5738 40.2867 91.9005 38.735 91.9005 36.635C91.9005 34.535 91.5738 33.0183 90.9205 32.085C90.2905 31.1283 89.2288 30.65 87.7355 30.65C86.4988 30.65 85.4955 31.0933 84.7255 31.98C83.9788 32.8667 83.6055 34.0917 83.6055 35.655V37.615C83.6055 39.0617 84.0022 40.2867 84.7955 41.29C85.5888 42.2933 86.6155 42.795 87.8755 42.795ZM107.288 45.525C104.488 45.525 102.283 44.79 100.673 43.32C99.086 41.8267 98.2927 39.645 98.2927 36.775C98.2927 33.7417 99.051 31.4667 100.568 29.95C102.084 28.4333 104.243 27.675 107.043 27.675C109.749 27.675 111.803 28.4333 113.203 29.95C114.626 31.4433 115.338 33.4733 115.338 36.04V37.685H102.843C102.843 39.3183 103.228 40.52 103.998 41.29C104.768 42.0367 105.876 42.41 107.323 42.41C108.769 42.41 109.924 42.2233 110.788 41.85V40.625H114.743V43.285C112.969 44.7783 110.484 45.525 107.288 45.525ZM110.788 35.06C110.788 33.6133 110.473 32.54 109.843 31.84C109.213 31.14 108.256 30.79 106.973 30.79C105.643 30.79 104.616 31.1633 103.893 31.91C103.193 32.6333 102.843 33.6833 102.843 35.06H110.788Z" fill="#474747"/>
</svg>
