<svg width="29" height="37" viewBox="0 0 29 37" fill="none" xmlns="http://www.w3.org/2000/svg">
    <g filter="url(#filter0_d_848:38)">
        <path d="M14.5 0C10.6962 0 7.25 3.08488 7.25 6.88992C7.25 10.6938 10.3941 15.2359 14.5 21.75C18.6059 15.2359 21.75 10.6938 21.75 6.88992C21.75 3.08488 18.305 0 14.5 0ZM14.5 9.66667C13.1648 9.66667 12.0833 8.58521 12.0833 7.25C12.0833 5.91479 13.1648 4.83333 14.5 4.83333C15.8352 4.83333 16.9167 5.91479 16.9167 7.25C16.9167 8.58521 15.8352 9.66667 14.5 9.66667ZM19.3333 27.1875C19.3333 28.188 17.1704 29 14.5 29C11.8296 29 9.66667 28.188 9.66667 27.1875C9.66667 26.187 11.8296 25.375 14.5 25.375C17.1704 25.375 19.3333 26.187 19.3333 27.1875Z" fill="#27AE60"/>
    </g>
    <defs>
        <filter id="filter0_d_848:38" x="-4" y="0" width="37" height="37" filterUnits="userSpaceOnUse" color-interpolation-filters="sRGB">
            <feFlood flood-opacity="0" result="BackgroundImageFix"/>
            <feColorMatrix in="SourceAlpha" type="matrix" values="0 0 0 0 0 0 0 0 0 0 0 0 0 0 0 0 0 0 127 0" result="hardAlpha"/>
            <feOffset dy="4"/>
            <feGaussianBlur stdDeviation="2"/>
            <feComposite in2="hardAlpha" operator="out"/>
            <feColorMatrix type="matrix" values="0 0 0 0 0 0 0 0 0 0 0 0 0 0 0 0 0 0 0.25 0"/>
            <feBlend mode="normal" in2="BackgroundImageFix" result="effect1_dropShadow_848:38"/>
            <feBlend mode="normal" in="SourceGraphic" in2="effect1_dropShadow_848:38" result="shape"/>
        </filter>
    </defs>
</svg>
