<svg width="68" height="54" viewBox="0 0 68 54" fill="none" xmlns="http://www.w3.org/2000/svg">
<path d="M17.6865 36.418H42.805V37.9999H17.6865V36.418Z" fill="#0EA45C" fill-opacity="0.35"/>
<path d="M39.7005 21.3286L30.2825 12L30.2722 12.0103L20.8644 21.2657L19.5474 23.3643H20.3687V37H30.2722H40.1756V23.3643H40.9454L39.7005 21.3286Z" fill="#0EA45C" fill-opacity="0.35"/>
<path d="M40.14 23.3643H40.9452L39.643 21.3286L29.7918 12L29.781 12.0103V37H40.14V23.3643Z" fill="#0EA45C" fill-opacity="0.35"/>
<path d="M29.7807 11L17.6865 24H17.6869L29.7811 11.0004L29.7807 11Z" fill="#0EA45C" fill-opacity="0.35"/>
<path d="M30.2461 11.0104L30.236 11L30.2357 11.0004L17.6865 24H19.8323L30.2461 13.2211L30.2561 13.2106L40.6096 24H42.8059L30.2461 11.0104Z" fill="#0EA45C" fill-opacity="0.35"/>
<path d="M40.5283 24H42.8059L29.781 11V13.2125L29.7914 13.202L40.5283 24Z" fill="#0EA45C" fill-opacity="0.35"/>
<path d="M54.9006 36H67.9255V38H54.9006V36Z" fill="#0EA45C" fill-opacity="0.35"/>
<path d="M46.5422 34.955H47.4522C47.9422 34.955 48.2922 34.85 48.5022 34.64C48.7122 34.4067 48.8172 34.0567 48.8172 33.59V19.695C48.8172 19.2517 48.7122 18.925 48.5022 18.715C48.2922 18.505 47.9422 18.4 47.4522 18.4H46.5422V15.355H63.7622V20.325H59.5622V19.695C59.5622 18.8317 59.1072 18.4 58.1972 18.4H53.4372V25.12H58.8272V28.2H53.4372V33.66C53.4372 34.1033 53.5422 34.43 53.7522 34.64C53.9622 34.85 54.2888 34.955 54.7322 34.955H55.6772V38H46.5422V34.955Z" fill="#474747"/>
<path d="M0.95501 34.955H1.86501C2.35501 34.955 2.70501 34.85 2.91501 34.64C3.12501 34.4067 3.23001 34.0567 3.23001 33.59V19.695C3.23001 19.2517 3.12501 18.925 2.91501 18.715C2.70501 18.505 2.35501 18.4 1.86501 18.4H0.95501V15.355H10.02V18.4H9.11001C8.64334 18.4 8.30501 18.505 8.09501 18.715C7.90834 18.925 7.81501 19.2517 7.81501 19.695V33.66C7.81501 34.1033 7.90834 34.43 8.09501 34.64C8.30501 34.85 8.64334 34.955 9.11001 34.955H10.02V38H0.95501V34.955Z" fill="#474747"/>
</svg>
