<svg width="28" height="17" viewBox="0 0 28 17" fill="none" xmlns="http://www.w3.org/2000/svg">
<path d="M14.8273 5.45384C13.7773 2.27694 10.9582 0 7.63637 0C3.41727 0 0 3.6609 0 8.18079C0 12.7007 3.41727 16.3616 7.63637 16.3616C10.9582 16.3616 13.7773 14.0846 14.8273 10.9077H20.3636V16.3616H25.4545V10.9077H28V5.45384H14.8273ZM7.63637 10.9077C6.23002 10.9077 5.09089 9.68739 5.09089 8.18072C5.09089 6.67405 6.23002 5.45384 7.63637 5.45384C9.04271 5.45384 10.1818 6.67412 10.1818 8.18079C10.1818 9.68746 9.04271 10.9077 7.63637 10.9077Z" fill="#BDBDBD"/>
</svg>
