<svg width="28" height="28" viewBox="0 0 28 28" fill="none" xmlns="http://www.w3.org/2000/svg">
<path d="M6.66667 0C2.99244 0 0 2.99244 0 6.66667V21.3333C0 25.0076 2.99244 28 6.66667 28H21.3333C25.0076 28 28 25.0076 28 21.3333V6.66667C28 2.99244 25.0076 0 21.3333 0H6.66667ZM9.33724 5.36198C9.75591 5.37998 10.1404 5.61586 10.3724 5.97786C10.6364 6.38986 11.0461 7.02928 11.5794 7.86328C12.0661 8.62395 12.1 9.60641 11.6654 10.3997L10.6888 11.7891C10.4248 12.1651 10.3721 12.6463 10.5495 13.0703C10.8255 13.7303 11.3605 14.7446 12.3112 15.6953C13.2619 16.646 14.2762 17.181 14.9362 17.457C15.3602 17.6344 15.8414 17.5817 16.2174 17.3177L17.6068 16.3411C18.4001 15.9065 19.3826 15.9411 20.1432 16.4271C20.9772 16.9604 21.6166 17.3701 22.0286 17.6341C22.3906 17.8661 22.6265 18.2506 22.6445 18.6693C22.7472 21.0453 20.9064 22.0078 20.3711 22.0078C20.0004 22.0078 15.5442 22.5143 10.5182 17.4883C5.49223 12.4623 5.9987 8.00608 5.9987 7.63542C5.9987 7.10008 6.96124 5.25931 9.33724 5.36198Z" fill="#B7B6B6"/>
</svg>
