<svg width="206" height="28" viewBox="0 0 206 28" fill="none" xmlns="http://www.w3.org/2000/svg">
<path d="M128.662 10.3286L118.539 1L118.528 1.01029L108.416 10.2657L107 12.3643H107.883V26H118.528H129.173V12.3643H130L128.662 10.3286Z" fill="#0EA45C" fill-opacity="0.35"/>
<path d="M129.135 12.3643H130L128.6 10.3286L118.012 1L118 1.01029V26H129.135V12.3643Z" fill="#0EA45C" fill-opacity="0.35"/>
<path d="M118 0L105 13H105L118 0.000379167L118 0Z" fill="#0EA45C" fill-opacity="0.35"/>
<path d="M118.5 0.0104L118.489 0L118.489 0.000379167L105 13H107.306L118.5 2.2211L118.511 2.2106L129.639 13H132L118.5 0.0104Z" fill="#0EA45C" fill-opacity="0.35"/>
<path d="M129.552 13H132L118 0V2.21247L118.011 2.20196L129.552 13Z" fill="#0EA45C" fill-opacity="0.35"/>
<path d="M192 25H206V27H192V25Z" fill="#0EA45C" fill-opacity="0.35"/>
<path d="M135.945 23.955H136.855C137.345 23.955 137.695 23.85 137.905 23.64C138.115 23.4067 138.22 23.0567 138.22 22.59V8.695C138.22 8.25167 138.115 7.925 137.905 7.715C137.695 7.505 137.345 7.4 136.855 7.4H135.945V4.355H153.165V9.325H148.965V8.695C148.965 7.83167 148.51 7.4 147.6 7.4H142.84V14.12H148.23V17.2H142.84V22.66C142.84 23.1033 142.945 23.43 143.155 23.64C143.365 23.85 143.692 23.955 144.135 23.955H145.08V27H135.945V23.955ZM153.821 23.955H154.731C155.221 23.955 155.571 23.85 155.781 23.64C155.991 23.4067 156.096 23.0567 156.096 22.59V8.345C156.096 7.83167 156.003 7.45833 155.816 7.225C155.653 6.99167 155.314 6.875 154.801 6.875H153.821V3.83H160.681V22.66C160.681 23.1033 160.774 23.43 160.961 23.64C161.171 23.85 161.509 23.955 161.976 23.955H162.886V27H153.821V23.955ZM173.412 27.525C170.612 27.525 168.407 26.79 166.797 25.32C165.21 23.8267 164.417 21.645 164.417 18.775C164.417 15.7417 165.175 13.4667 166.692 11.95C168.208 10.4333 170.367 9.675 173.167 9.675C175.873 9.675 177.927 10.4333 179.327 11.95C180.75 13.4433 181.462 15.4733 181.462 18.04V19.685H168.967C168.967 21.3183 169.352 22.52 170.122 23.29C170.892 24.0367 172 24.41 173.447 24.41C174.893 24.41 176.048 24.2233 176.912 23.85V22.625H180.867V25.285C179.093 26.7783 176.608 27.525 173.412 27.525ZM176.912 17.06C176.912 15.6133 176.597 14.54 175.967 13.84C175.337 13.14 174.38 12.79 173.097 12.79C171.767 12.79 170.74 13.1633 170.017 13.91C169.317 14.6333 168.967 15.6833 168.967 17.06H176.912ZM182.114 23.955H183.199C183.735 23.955 184.155 23.885 184.459 23.745C184.762 23.5817 185.065 23.3017 185.369 22.905L188.694 18.565L185.369 14.295C185.065 13.8983 184.762 13.63 184.459 13.49C184.155 13.3267 183.735 13.245 183.199 13.245H182.114V10.2H189.779V13.245H188.904L191.179 16.29L193.454 13.245H192.579V10.2H200.244V13.245H199.159C198.622 13.245 198.202 13.3267 197.899 13.49C197.595 13.63 197.292 13.8983 196.989 14.295L193.629 18.565L196.989 22.905C197.292 23.3017 197.595 23.5817 197.899 23.745C198.202 23.885 198.622 23.955 199.159 23.955H200.244V27H192.579V23.955H193.454L191.179 20.875L188.904 23.955H189.779V27H182.114V23.955Z" fill="#474747"/>
<path d="M0.945 23.955H1.855C2.345 23.955 2.695 23.85 2.905 23.64C3.115 23.4067 3.22 23.0567 3.22 22.59V8.695C3.22 8.25167 3.115 7.925 2.905 7.715C2.695 7.505 2.345 7.4 1.855 7.4H0.945V4.355H10.01V7.4H9.1C8.63333 7.4 8.295 7.505 8.085 7.715C7.89833 7.925 7.805 8.25167 7.805 8.695V22.66C7.805 23.1033 7.89833 23.43 8.085 23.64C8.295 23.85 8.63333 23.955 9.1 23.955H10.01V27H0.945V23.955ZM11.9167 23.955H12.8267C13.3167 23.955 13.6667 23.85 13.8767 23.64C14.0867 23.4067 14.1917 23.0567 14.1917 22.59V14.54C14.1917 14.0967 14.0867 13.77 13.8767 13.56C13.69 13.35 13.3633 13.245 12.8967 13.245H11.9167V10.2H17.0617L17.3067 12.58C18.6133 10.6433 20.62 9.675 23.3267 9.675C24.33 9.675 25.205 9.89667 25.9517 10.34C26.6983 10.7833 27.2933 11.4017 27.7367 12.195C28.3433 11.3317 29.0667 10.7017 29.9067 10.305C30.77 9.885 31.7967 9.675 32.9867 9.675C34.97 9.675 36.3933 10.165 37.2567 11.145C38.1433 12.1017 38.5867 13.5483 38.5867 15.485V22.66C38.5867 23.1033 38.68 23.43 38.8667 23.64C39.0767 23.85 39.415 23.955 39.8817 23.955H40.7917V27H34.0017V15.485C34.0017 14.4583 33.8033 13.735 33.4067 13.315C33.01 12.8717 32.3683 12.65 31.4817 12.65C30.525 12.65 29.79 12.9067 29.2767 13.42C28.7867 13.9333 28.5417 14.7033 28.5417 15.73V22.66C28.5417 23.1033 28.635 23.43 28.8217 23.64C29.0317 23.85 29.37 23.955 29.8367 23.955H30.9217V27H24.2367V15.555C24.2367 14.5517 24.0383 13.8167 23.6417 13.35C23.245 12.8833 22.6267 12.65 21.7867 12.65C20.7833 12.65 20.0133 12.9183 19.4767 13.455C18.9633 13.9917 18.7067 14.8083 18.7067 15.905V22.66C18.7067 23.1033 18.8 23.43 18.9867 23.64C19.1967 23.85 19.535 23.955 20.0017 23.955H20.9817V27H11.9167V23.955ZM51.1566 27.525C48.2866 27.525 46.0933 26.755 44.5766 25.215C43.0833 23.675 42.3366 21.4817 42.3366 18.635C42.3366 15.765 43.0833 13.56 44.5766 12.02C46.0699 10.4567 48.2633 9.675 51.1566 9.675C54.0733 9.675 56.2666 10.4567 57.7366 12.02C59.2299 13.56 59.9766 15.765 59.9766 18.635C59.9766 21.4817 59.2183 23.675 57.7016 25.215C56.2083 26.755 54.0266 27.525 51.1566 27.525ZM51.1566 24.41C52.6266 24.41 53.6999 23.9433 54.3766 23.01C55.0766 22.0767 55.4266 20.6183 55.4266 18.635C55.4266 16.6283 55.0766 15.1583 54.3766 14.225C53.6999 13.2683 52.6266 12.79 51.1566 12.79C49.6866 12.79 48.6016 13.2683 47.9016 14.225C47.2249 15.1583 46.8866 16.6283 46.8866 18.635C46.8866 20.6183 47.2249 22.0767 47.9016 23.01C48.6016 23.9433 49.6866 24.41 51.1566 24.41ZM72.7155 27.525C71.3155 27.525 70.1255 27.28 69.1455 26.79C68.1888 26.2767 67.3722 25.4833 66.6955 24.41L66.4155 27H62.9155V8.38C62.9155 7.86667 62.8222 7.49333 62.6355 7.26C62.4722 7.02667 62.1338 6.91 61.6205 6.91H60.9905V3.83H67.3955V11.915C68.1422 11.1217 68.9705 10.55 69.8805 10.2C70.8138 9.85 71.8872 9.675 73.1005 9.675C75.5038 9.675 77.3238 10.445 78.5605 11.985C79.7972 13.525 80.4155 15.7533 80.4155 18.67C80.4155 21.4467 79.7155 23.6167 78.3155 25.18C76.9155 26.7433 75.0488 27.525 72.7155 27.525ZM71.8755 24.795C73.2755 24.795 74.2905 24.2933 74.9205 23.29C75.5738 22.2867 75.9005 20.735 75.9005 18.635C75.9005 16.535 75.5738 15.0183 74.9205 14.085C74.2905 13.1283 73.2288 12.65 71.7355 12.65C70.4988 12.65 69.4955 13.0933 68.7255 13.98C67.9788 14.8667 67.6055 16.0917 67.6055 17.655V19.615C67.6055 21.0617 68.0022 22.2867 68.7955 23.29C69.5888 24.2933 70.6155 24.795 71.8755 24.795ZM91.2877 27.525C88.4877 27.525 86.2827 26.79 84.6727 25.32C83.086 23.8267 82.2927 21.645 82.2927 18.775C82.2927 15.7417 83.051 13.4667 84.5677 11.95C86.0843 10.4333 88.2427 9.675 91.0427 9.675C93.7493 9.675 95.8027 10.4333 97.2027 11.95C98.626 13.4433 99.3377 15.4733 99.3377 18.04V19.685H86.8427C86.8427 21.3183 87.2277 22.52 87.9977 23.29C88.7677 24.0367 89.876 24.41 91.3227 24.41C92.7693 24.41 93.9243 24.2233 94.7877 23.85V22.625H98.7427V25.285C96.9693 26.7783 94.4843 27.525 91.2877 27.525ZM94.7877 17.06C94.7877 15.6133 94.4727 14.54 93.8427 13.84C93.2127 13.14 92.256 12.79 90.9727 12.79C89.6427 12.79 88.616 13.1633 87.8927 13.91C87.1927 14.6333 86.8427 15.6833 86.8427 17.06H94.7877Z" fill="#474747"/>
</svg>
