<svg width="13" height="13" viewBox="0 0 13 13" fill="none" xmlns="http://www.w3.org/2000/svg">
<path d="M2.4375 8.12499H3.24999C3.6989 8.12499 4.06249 7.76098 4.06249 7.31247V6.49999C4.06249 6.05108 3.6989 5.68749 3.24999 5.68749H2.4375C1.98859 5.68749 1.625 6.05108 1.625 6.49999V7.31247C1.625 7.76098 1.98859 8.12499 2.4375 8.12499ZM2.4375 6.49999H3.24999V7.31247H2.4375V6.49999ZM8.93749 11.375H9.74998C10.1989 11.375 10.5625 11.0114 10.5625 10.5625V9.74998C10.5625 9.3011 10.1989 8.93751 9.74998 8.93751H8.93749C8.489 8.93751 8.12499 9.3011 8.12499 9.74998V10.5625C8.12499 11.0114 8.48858 11.375 8.93749 11.375ZM8.93749 9.74998H9.74998V10.5625H8.93749V9.74998ZM8.93749 8.12499H9.74998C10.1989 8.12499 10.5625 7.76098 10.5625 7.31247V6.49999C10.5625 6.05108 10.1989 5.68749 9.74998 5.68749H8.93749C8.489 5.68749 8.12499 6.05108 8.12499 6.49999V7.31247C8.12499 7.76098 8.48858 8.12499 8.93749 8.12499ZM8.93749 6.49999H9.74998V7.31247H8.93749V6.49999ZM10.5625 0.812499H8.93749V0.406249C8.93749 0.181996 8.75549 0 8.53126 0C8.30702 0 8.12501 0.181996 8.12501 0.406249V0.812499H4.06251V0.406249C4.06249 0.181996 3.8805 0 3.65624 0C3.43199 0 3.24999 0.181996 3.24999 0.406249V0.812499H1.625C0.727605 0.812499 0 1.5401 0 2.4375V11.375C0 12.2724 0.727605 13 1.625 13H10.5625C11.4599 13 12.1875 12.2724 12.1875 11.375V2.4375C12.1875 1.54008 11.4599 0.812499 10.5625 0.812499ZM11.375 11.375C11.375 11.8239 11.0114 12.1875 10.5625 12.1875H1.625C1.17609 12.1875 0.812499 11.8235 0.812499 11.375V4.06249H11.375V11.375H11.375ZM11.375 3.24999H0.812499V2.4375C0.812499 1.98859 1.17609 1.625 1.625 1.625H3.24999V2.03125C3.24999 2.2555 3.43199 2.4375 3.65624 2.4375C3.8805 2.4375 4.06249 2.2555 4.06249 2.03125V1.625H8.12499V2.03125C8.12499 2.2555 8.307 2.4375 8.53124 2.4375C8.75547 2.4375 8.93749 2.2555 8.93749 2.03125V1.625H10.5625C11.0114 1.625 11.375 1.98859 11.375 2.4375V3.24999ZM5.68749 11.375H6.49999C6.94889 11.375 7.31249 11.0114 7.31249 10.5625V9.74998C7.31249 9.3011 6.94889 8.93751 6.49999 8.93751H5.68749C5.239 8.93751 4.87499 9.3011 4.87499 9.74998V10.5625C4.87499 11.0114 5.23859 11.375 5.68749 11.375ZM5.68749 9.74998H6.49999V10.5625H5.68749V9.74998ZM5.68749 8.12499H6.49999C6.94889 8.12499 7.31249 7.76098 7.31249 7.31247V6.49999C7.31249 6.05108 6.94889 5.68749 6.49999 5.68749H5.68749C5.239 5.68749 4.87499 6.05108 4.87499 6.49999V7.31247C4.87499 7.76098 5.23859 8.12499 5.68749 8.12499ZM5.68749 6.49999H6.49999V7.31247H5.68749V6.49999ZM2.4375 11.375H3.24999C3.6989 11.375 4.06249 11.0114 4.06249 10.5625V9.74998C4.06249 9.3011 3.6989 8.93751 3.24999 8.93751H2.4375C1.98859 8.93751 1.625 9.3011 1.625 9.74998V10.5625C1.625 11.0114 1.98859 11.375 2.4375 11.375ZM2.4375 9.74998H3.24999V10.5625H2.4375V9.74998Z" fill="#696969"/>
</svg>
