<svg width="30" height="30" viewBox="0 0 30 30" fill="none" xmlns="http://www.w3.org/2000/svg">
<g clip-path="url(#clip0)">
<path d="M16.6571 15.0008L29.6565 2.00131C30.1142 1.54363 30.1142 0.801605 29.6565 0.343989C29.1989 -0.113628 28.4568 -0.113686 27.9992 0.343989L14.9997 13.3435L2.00033 0.343989C1.54266 -0.113686 0.800628 -0.113686 0.343012 0.343989C-0.114604 0.801663 -0.114663 1.54369 0.343012 2.00131L13.3424 15.0007L0.343012 28.0002C-0.114663 28.4579 -0.114663 29.1999 0.343012 29.6575C0.57182 29.8863 0.871761 30.0007 1.1717 30.0007C1.47164 30.0007 1.77153 29.8863 2.00039 29.6575L14.9997 16.6581L27.9992 29.6575C28.228 29.8863 28.5279 30.0007 28.8278 30.0007C29.1278 30.0007 29.4277 29.8863 29.6565 29.6575C30.1142 29.1998 30.1142 28.4578 29.6565 28.0002L16.6571 15.0008Z" fill="#4B4444"/>
</g>
<defs>
<clipPath id="clip0">
<rect width="30" height="30" fill="white"/>
</clipPath>
</defs>
</svg>
