<svg width="28" height="28" viewBox="0 0 28 28" fill="none" xmlns="http://www.w3.org/2000/svg">
<path d="M24.7188 3.71875H3.28125C1.47197 3.71875 0 5.19072 0 7V21C0 22.8093 1.47197 24.2812 3.28125 24.2812H24.7188C26.528 24.2812 28 22.8093 28 21V7C28 5.19072 26.528 3.71875 24.7188 3.71875ZM25.8125 21C25.8125 21.6031 25.3218 22.0938 24.7188 22.0938H3.28125C2.67816 22.0938 2.1875 21.6031 2.1875 21V7C2.1875 6.39691 2.67816 5.90625 3.28125 5.90625H24.7188C25.3218 5.90625 25.8125 6.39691 25.8125 7V21Z" fill="#878787"/>
<path d="M25.6268 5.08252L14 13.7306L2.37324 5.08252L1.06763 6.83771L14 16.4569L26.9324 6.83771L25.6268 5.08252Z" fill="#878787"/>
</svg>
