<svg width="25" height="25" viewBox="0 0 25 25" fill="none" xmlns="http://www.w3.org/2000/svg">
<g clip-path="url(#clip0)">
<path d="M21.6112 9.84533L12.5101 1.26031L12.5001 1.26979L3.40869 9.78746L2.13599 11.7188H2.92974V24.2676H12.5001H22.0704V11.7188H22.8142L21.6112 9.84533Z" fill="#A0A0A0"/>
<path d="M22.0703 11.7188H22.8142L21.6111 9.84533L12.51 1.26031L12.5 1.26979V24.2676H22.0703V11.7188Z" fill="#A0A0A0"/>
<path d="M7.37305 10.2539V20.5078H17.6758V10.2539H7.37305Z" fill="#A0A0A0"/>
<path d="M12.5 10.2539H17.6758V20.5078H12.5V10.2539Z" fill="#A0A0A0"/>
<path d="M20.6055 8.78906L17.6758 5.85938V2.92969H20.6055V8.78906Z" fill="#A0A0A0"/>
<path d="M12.4893 0L0 11.7188H0.000341797L12.4896 0.000341797L12.4893 0Z" fill="#A0A0A0"/>
<path d="M8.83789 11.7188H11.7676V14.6484H8.83789V11.7188Z" fill="#ECECEC" fill-opacity="0.97"/>
<path d="M13.2324 11.7188H16.2109V14.6484H13.2324V11.7188Z" fill="#ECECEC" fill-opacity="0.97"/>
<path d="M8.83789 16.1133H11.7676V19.043H8.83789V16.1133Z" fill="#ECECEC" fill-opacity="0.97"/>
<path d="M13.2324 16.1133H16.2109V19.043H13.2324V16.1133Z" fill="#ECECEC" fill-opacity="0.97"/>
<path d="M12.5012 0.009375L12.4912 0L12.4909 0.000341797L0.00158691 11.7188H2.13718L12.5012 2.0022L12.5113 1.99272L22.8154 11.7188H25.0013L12.5012 0.009375Z" fill="#A0A0A0"/>
<path d="M22.8142 11.7187H25L12.5 0.0093689V2.00219L12.51 1.99272L22.8142 11.7187Z" fill="#A0A0A0"/>
<path d="M0 23.5352H25V25H0V23.5352Z" fill="#A0A0A0"/>
<path d="M12.5 23.5352H25V25H12.5V23.5352Z" fill="#A0A0A0"/>
</g>
<defs>
<clipPath id="clip0">
<rect width="25" height="25" fill="white"/>
</clipPath>
</defs>
</svg>
