<svg width="14" height="14" viewBox="0 0 14 14" fill="none" xmlns="http://www.w3.org/2000/svg">
<path d="M7 0C4.10521 0 1.75 2.35521 1.75 5.25C1.75 7.96046 6.06054 13.2017 6.55229 13.7906C6.66313 13.9233 6.82704 14 7 14C7.17296 14 7.33687 13.9233 7.44771 13.7906C7.93946 13.2017 12.25 7.96046 12.25 5.25C12.25 2.35521 9.89479 0 7 0ZM7 12.4915C5.54808 10.6633 2.91667 6.9895 2.91667 5.25C2.91667 2.99833 4.74833 1.16667 7 1.16667C9.25167 1.16667 11.0833 2.99833 11.0833 5.25C11.0833 6.9895 8.45192 10.6633 7 12.4915Z" fill="#27AE60"/>
<path d="M7.00016 2.33337C5.39191 2.33337 4.0835 3.64179 4.0835 5.25004C4.0835 6.85829 5.39191 8.16671 7.00016 8.16671C7.79291 8.16671 8.53433 7.85404 9.08791 7.28646C9.31279 7.05575 9.30812 6.6865 9.0777 6.46162C8.847 6.23675 8.47775 6.24112 8.25287 6.47183C7.92066 6.8125 7.47587 7.00004 7.00016 7.00004C6.03504 7.00004 5.25016 6.21517 5.25016 5.25004C5.25016 4.28492 6.03504 3.50004 7.00016 3.50004C7.96529 3.50004 8.75016 4.28492 8.75016 5.25004C8.75016 5.57204 9.0115 5.83337 9.3335 5.83337C9.6555 5.83337 9.91683 5.57204 9.91683 5.25004C9.91683 3.64179 8.60841 2.33337 7.00016 2.33337Z" fill="#27AE60"/>
</svg>
