<svg width="206" height="55" viewBox="0 0 206 55" fill="none" xmlns="http://www.w3.org/2000/svg">
<path d="M105 36.418H131.999V38H105V36.418Z" fill="#0EA45C" fill-opacity="0.35"/>
<path d="M128.662 21.3286L118.539 12L118.528 12.0103L108.416 21.2657L107 23.3643H107.883V37H118.528H129.173V23.3643H130L128.662 21.3286Z" fill="#0EA45C" fill-opacity="0.35"/>
<path d="M129.135 23.3643H130L128.6 21.3286L118.012 12L118 12.0103V37H129.135V23.3643Z" fill="#0EA45C" fill-opacity="0.35"/>
<path d="M118 11L105 24H105L118 11.0004L118 11Z" fill="#0EA45C" fill-opacity="0.35"/>
<path d="M118.5 11.0104L118.489 11L118.489 11.0004L105 24H107.306L118.5 13.2211L118.511 13.2106L129.639 24H132L118.5 11.0104Z" fill="#0EA45C" fill-opacity="0.35"/>
<path d="M129.552 24H132L118 11V13.2125L118.011 13.202L129.552 24Z" fill="#0EA45C" fill-opacity="0.35"/>
<path d="M192 36H206V38H192V36Z" fill="#0EA45C" fill-opacity="0.35"/>
<path d="M135.945 34.955H136.855C137.345 34.955 137.695 34.85 137.905 34.64C138.115 34.4067 138.22 34.0567 138.22 33.59V19.695C138.22 19.2517 138.115 18.925 137.905 18.715C137.695 18.505 137.345 18.4 136.855 18.4H135.945V15.355H153.165V20.325H148.965V19.695C148.965 18.8317 148.51 18.4 147.6 18.4H142.84V25.12H148.23V28.2H142.84V33.66C142.84 34.1033 142.945 34.43 143.155 34.64C143.365 34.85 143.692 34.955 144.135 34.955H145.08V38H135.945V34.955ZM153.821 34.955H154.731C155.221 34.955 155.571 34.85 155.781 34.64C155.991 34.4067 156.096 34.0567 156.096 33.59V19.345C156.096 18.8317 156.003 18.4583 155.816 18.225C155.653 17.9917 155.314 17.875 154.801 17.875H153.821V14.83H160.681V33.66C160.681 34.1033 160.774 34.43 160.961 34.64C161.171 34.85 161.509 34.955 161.976 34.955H162.886V38H153.821V34.955ZM173.412 38.525C170.612 38.525 168.407 37.79 166.797 36.32C165.21 34.8267 164.417 32.645 164.417 29.775C164.417 26.7417 165.175 24.4667 166.692 22.95C168.208 21.4333 170.367 20.675 173.167 20.675C175.873 20.675 177.927 21.4333 179.327 22.95C180.75 24.4433 181.462 26.4733 181.462 29.04V30.685H168.967C168.967 32.3183 169.352 33.52 170.122 34.29C170.892 35.0367 172 35.41 173.447 35.41C174.893 35.41 176.048 35.2233 176.912 34.85V33.625H180.867V36.285C179.093 37.7783 176.608 38.525 173.412 38.525ZM176.912 28.06C176.912 26.6133 176.597 25.54 175.967 24.84C175.337 24.14 174.38 23.79 173.097 23.79C171.767 23.79 170.74 24.1633 170.017 24.91C169.317 25.6333 168.967 26.6833 168.967 28.06H176.912ZM182.114 34.955H183.199C183.735 34.955 184.155 34.885 184.459 34.745C184.762 34.5817 185.065 34.3017 185.369 33.905L188.694 29.565L185.369 25.295C185.065 24.8983 184.762 24.63 184.459 24.49C184.155 24.3267 183.735 24.245 183.199 24.245H182.114V21.2H189.779V24.245H188.904L191.179 27.29L193.454 24.245H192.579V21.2H200.244V24.245H199.159C198.622 24.245 198.202 24.3267 197.899 24.49C197.595 24.63 197.292 24.8983 196.989 25.295L193.629 29.565L196.989 33.905C197.292 34.3017 197.595 34.5817 197.899 34.745C198.202 34.885 198.622 34.955 199.159 34.955H200.244V38H192.579V34.955H193.454L191.179 31.875L188.904 34.955H189.779V38H182.114V34.955Z" fill="#474747"/>
<path d="M0.945 34.955H1.855C2.345 34.955 2.695 34.85 2.905 34.64C3.115 34.4067 3.22 34.0567 3.22 33.59V19.695C3.22 19.2517 3.115 18.925 2.905 18.715C2.695 18.505 2.345 18.4 1.855 18.4H0.945V15.355H10.01V18.4H9.1C8.63333 18.4 8.295 18.505 8.085 18.715C7.89833 18.925 7.805 19.2517 7.805 19.695V33.66C7.805 34.1033 7.89833 34.43 8.085 34.64C8.295 34.85 8.63333 34.955 9.1 34.955H10.01V38H0.945V34.955ZM11.9167 34.955H12.8267C13.3167 34.955 13.6667 34.85 13.8767 34.64C14.0867 34.4067 14.1917 34.0567 14.1917 33.59V25.54C14.1917 25.0967 14.0867 24.77 13.8767 24.56C13.69 24.35 13.3633 24.245 12.8967 24.245H11.9167V21.2H17.0617L17.3067 23.58C18.6133 21.6433 20.62 20.675 23.3267 20.675C24.33 20.675 25.205 20.8967 25.9517 21.34C26.6983 21.7833 27.2933 22.4017 27.7367 23.195C28.3433 22.3317 29.0667 21.7017 29.9067 21.305C30.77 20.885 31.7967 20.675 32.9867 20.675C34.97 20.675 36.3933 21.165 37.2567 22.145C38.1433 23.1017 38.5867 24.5483 38.5867 26.485V33.66C38.5867 34.1033 38.68 34.43 38.8667 34.64C39.0767 34.85 39.415 34.955 39.8817 34.955H40.7917V38H34.0017V26.485C34.0017 25.4583 33.8033 24.735 33.4067 24.315C33.01 23.8717 32.3683 23.65 31.4817 23.65C30.525 23.65 29.79 23.9067 29.2767 24.42C28.7867 24.9333 28.5417 25.7033 28.5417 26.73V33.66C28.5417 34.1033 28.635 34.43 28.8217 34.64C29.0317 34.85 29.37 34.955 29.8367 34.955H30.9217V38H24.2367V26.555C24.2367 25.5517 24.0383 24.8167 23.6417 24.35C23.245 23.8833 22.6267 23.65 21.7867 23.65C20.7833 23.65 20.0133 23.9183 19.4767 24.455C18.9633 24.9917 18.7067 25.8083 18.7067 26.905V33.66C18.7067 34.1033 18.8 34.43 18.9867 34.64C19.1967 34.85 19.535 34.955 20.0017 34.955H20.9817V38H11.9167V34.955ZM51.1566 38.525C48.2866 38.525 46.0933 37.755 44.5766 36.215C43.0833 34.675 42.3366 32.4817 42.3366 29.635C42.3366 26.765 43.0833 24.56 44.5766 23.02C46.0699 21.4567 48.2633 20.675 51.1566 20.675C54.0733 20.675 56.2666 21.4567 57.7366 23.02C59.2299 24.56 59.9766 26.765 59.9766 29.635C59.9766 32.4817 59.2183 34.675 57.7016 36.215C56.2083 37.755 54.0266 38.525 51.1566 38.525ZM51.1566 35.41C52.6266 35.41 53.6999 34.9433 54.3766 34.01C55.0766 33.0767 55.4266 31.6183 55.4266 29.635C55.4266 27.6283 55.0766 26.1583 54.3766 25.225C53.6999 24.2683 52.6266 23.79 51.1566 23.79C49.6866 23.79 48.6016 24.2683 47.9016 25.225C47.2249 26.1583 46.8866 27.6283 46.8866 29.635C46.8866 31.6183 47.2249 33.0767 47.9016 34.01C48.6016 34.9433 49.6866 35.41 51.1566 35.41ZM72.7155 38.525C71.3155 38.525 70.1255 38.28 69.1455 37.79C68.1888 37.2767 67.3722 36.4833 66.6955 35.41L66.4155 38H62.9155V19.38C62.9155 18.8667 62.8222 18.4933 62.6355 18.26C62.4722 18.0267 62.1338 17.91 61.6205 17.91H60.9905V14.83H67.3955V22.915C68.1422 22.1217 68.9705 21.55 69.8805 21.2C70.8138 20.85 71.8872 20.675 73.1005 20.675C75.5038 20.675 77.3238 21.445 78.5605 22.985C79.7972 24.525 80.4155 26.7533 80.4155 29.67C80.4155 32.4467 79.7155 34.6167 78.3155 36.18C76.9155 37.7433 75.0488 38.525 72.7155 38.525ZM71.8755 35.795C73.2755 35.795 74.2905 35.2933 74.9205 34.29C75.5738 33.2867 75.9005 31.735 75.9005 29.635C75.9005 27.535 75.5738 26.0183 74.9205 25.085C74.2905 24.1283 73.2288 23.65 71.7355 23.65C70.4988 23.65 69.4955 24.0933 68.7255 24.98C67.9788 25.8667 67.6055 27.0917 67.6055 28.655V30.615C67.6055 32.0617 68.0022 33.2867 68.7955 34.29C69.5888 35.2933 70.6155 35.795 71.8755 35.795ZM91.2877 38.525C88.4877 38.525 86.2827 37.79 84.6727 36.32C83.086 34.8267 82.2927 32.645 82.2927 29.775C82.2927 26.7417 83.051 24.4667 84.5677 22.95C86.0843 21.4333 88.2427 20.675 91.0427 20.675C93.7493 20.675 95.8027 21.4333 97.2027 22.95C98.626 24.4433 99.3377 26.4733 99.3377 29.04V30.685H86.8427C86.8427 32.3183 87.2277 33.52 87.9977 34.29C88.7677 35.0367 89.876 35.41 91.3227 35.41C92.7693 35.41 93.9243 35.2233 94.7877 34.85V33.625H98.7427V36.285C96.9693 37.7783 94.4843 38.525 91.2877 38.525ZM94.7877 28.06C94.7877 26.6133 94.4727 25.54 93.8427 24.84C93.2127 24.14 92.256 23.79 90.9727 23.79C89.6427 23.79 88.616 24.1633 87.8927 24.91C87.1927 25.6333 86.8427 26.6833 86.8427 28.06H94.7877Z" fill="#474747"/>
</svg>
