<svg width="27" height="27" viewBox="0 0 27 27" fill="none" xmlns="http://www.w3.org/2000/svg">
<rect width="27" height="27" rx="5" fill="#208FCD"/>
<path d="M18.4766 8.72656H8.52344C7.68341 8.72656 7 9.40998 7 10.25V16.75C7 17.59 7.68341 18.2734 8.52344 18.2734H18.4766C19.3166 18.2734 20 17.59 20 16.75V10.25C20 9.40998 19.3166 8.72656 18.4766 8.72656ZM18.9844 16.75C18.9844 17.03 18.7566 17.2578 18.4766 17.2578H8.52344C8.24343 17.2578 8.01562 17.03 8.01562 16.75V10.25C8.01562 9.96999 8.24343 9.74219 8.52344 9.74219H18.4766C18.7566 9.74219 18.9844 9.96999 18.9844 10.25V16.75Z" fill="white"/>
<path d="M18.8981 9.35974L13.4999 13.3749L8.10178 9.35974L7.49561 10.1747L13.4999 14.6407L19.5043 10.1747L18.8981 9.35974Z" fill="white"/>
</svg>
