<svg width="28" height="28" viewBox="0 0 28 28" fill="none" xmlns="http://www.w3.org/2000/svg">
<path d="M14.8273 11.0909C13.7773 8.12542 10.9582 6 7.63637 6C3.41727 6 0 9.41728 0 13.6364C0 17.8555 3.41727 21.2727 7.63637 21.2727C10.9582 21.2727 13.7773 19.1473 14.8273 16.1818H20.3636V21.2727H25.4545V16.1818H28V11.0909H14.8273ZM7.63637 16.1818C6.23002 16.1818 5.09089 15.0427 5.09089 13.6363C5.09089 12.2299 6.23002 11.0909 7.63637 11.0909C9.04271 11.0909 10.1818 12.23 10.1818 13.6364C10.1818 15.0428 9.04271 16.1818 7.63637 16.1818Z" fill="#878787"/>
</svg>
