<svg width="28" height="16" viewBox="0 0 28 16" fill="none" xmlns="http://www.w3.org/2000/svg">
<path d="M14.8273 5.09089C13.7773 2.12542 10.9582 0 7.63637 0C3.41727 0 0 3.41728 0 7.63637C0 11.8555 3.41727 15.2727 7.63637 15.2727C10.9582 15.2727 13.7773 13.1473 14.8273 10.1818H20.3636V15.2727H25.4545V10.1818H28V5.09089H14.8273ZM7.63637 10.1818C6.23002 10.1818 5.09089 9.04271 5.09089 7.63631C5.09089 6.22991 6.23002 5.09089 7.63637 5.09089C9.04271 5.09089 10.1818 6.22996 10.1818 7.63637C10.1818 9.04277 9.04271 10.1818 7.63637 10.1818Z" fill="#878787"/>
</svg>
