<svg width="28" height="28" viewBox="0 0 28 28" fill="none" xmlns="http://www.w3.org/2000/svg">
<g clip-path="url(#clip0)">
<path d="M14.9759 0.278112L15.1511 0H12.0203L12.1959 0.278112H14.9759Z" fill="#878787"/>
<path d="M19.9356 0H15.591C15.6251 0.0727039 15.6271 0.159541 15.5808 0.232755L15.3168 0.651836C15.2725 0.72306 15.1944 0.766019 15.1104 0.766019H12.0612C11.9773 0.766019 11.8997 0.723111 11.8548 0.652346L11.5904 0.233265C11.5441 0.160102 11.546 0.0732652 11.5801 0.000561223H8.06493C6.98718 0.000561223 6.1134 0.874335 6.1134 1.95209V26.0485C6.1134 27.1263 6.98718 28 8.06493 28H19.9351C21.0128 28 21.8866 27.1263 21.8866 26.0485V1.95153C21.8871 0.873774 21.0133 0 19.9356 0ZM17.6655 1.35974C17.8728 1.35974 18.0411 1.5276 18.0411 1.73495C18.0411 1.94229 17.8728 2.10964 17.6655 2.10964C17.4572 2.10964 17.2894 1.94183 17.2894 1.73495C17.2894 1.52709 17.4572 1.35974 17.6655 1.35974ZM15.8608 1.45928H16.4384C16.5907 1.45928 16.7136 1.5827 16.7136 1.73495C16.7136 1.88719 16.5902 2.0101 16.4384 2.0101H15.8608C15.7086 2.0101 15.5856 1.88668 15.5856 1.73495C15.5852 1.5827 15.7086 1.45928 15.8608 1.45928ZM9.70079 25.2855H9.4388L9.46513 25.3348C9.49687 25.3938 9.47539 25.4675 9.41539 25.4996C9.39682 25.5098 9.37681 25.5142 9.35784 25.5142C9.31391 25.5142 9.27197 25.4908 9.25003 25.4499L9.13146 25.2299C9.11095 25.1923 9.11192 25.1464 9.13437 25.1094L9.28462 24.8596C9.31972 24.802 9.39442 24.7835 9.45248 24.8182C9.50957 24.8523 9.5286 24.9279 9.49396 24.9855L9.46028 25.0416H9.7013C9.76911 25.0416 9.82329 25.0962 9.82329 25.1636C9.82278 25.2308 9.76814 25.2855 9.70079 25.2855ZM13.8961 25.5445L13.6073 25.4753V25.2323H13.8961V25.5445ZM13.8961 25.1815H13.6073V24.9195L13.8961 24.8693V25.1815ZM14.3781 25.6313L13.9561 25.5216V25.2317H14.3781V25.6313ZM14.3781 25.1815H13.9561V24.8688L14.3781 24.8097V25.1815ZM18.533 25.5333C18.4744 25.5333 18.4212 25.5152 18.3729 25.4898L18.2222 25.6079C18.2002 25.6255 18.1733 25.6343 18.147 25.6343C18.1113 25.6343 18.0758 25.6182 18.0513 25.5875C18.0099 25.5347 18.0191 25.4576 18.0718 25.4162L18.207 25.3099C18.1918 25.2698 18.1811 25.2269 18.1811 25.181C18.1811 24.9874 18.3387 24.8292 18.5329 24.8292C18.726 24.8292 18.8847 24.9869 18.8847 25.181C18.8848 25.3752 18.7266 25.5333 18.533 25.5333ZM20.1454 23.5866H7.85564V3.2176H20.1449V23.5866H20.1454Z" fill="#878787"/>
<path d="M18.533 25.2893C18.5925 25.2893 18.6408 25.2411 18.6408 25.1815C18.6408 25.122 18.5925 25.0737 18.533 25.0737C18.4734 25.0737 18.4252 25.122 18.4252 25.1815C18.4252 25.2411 18.4734 25.2893 18.533 25.2893Z" fill="#878787"/>
</g>
<defs>
<clipPath id="clip0">
<rect width="28" height="28" fill="white"/>
</clipPath>
</defs>
</svg>
