<svg width="13" height="14" viewBox="0 0 13 14" fill="none" xmlns="http://www.w3.org/2000/svg">
<g clip-path="url(#clip0)">
<path d="M10.7581 10.3778H11.3521C11.4047 10.3778 11.455 10.3564 11.4922 10.3183C11.5293 10.2802 11.5502 10.2286 11.5502 10.1747C11.5502 10.1208 11.5293 10.0691 11.4922 10.0311C11.455 9.99296 11.4047 9.97156 11.3521 9.97156H10.7581C10.7056 9.97156 10.6552 9.99296 10.6181 10.0311C10.5809 10.0691 10.5601 10.1208 10.5601 10.1747C10.5601 10.2286 10.5809 10.2802 10.6181 10.3183C10.6552 10.3564 10.7056 10.3778 10.7581 10.3778Z" fill="#979797"/>
<path d="M12.1441 7.53399H11.7964C11.8922 7.38687 11.956 7.22032 11.9835 7.04566C12.011 6.871 12.0015 6.69232 11.9557 6.52175L12.0526 6.22338C12.1133 6.03699 12.1441 5.84178 12.1441 5.64529V5.09649C12.1441 5.05877 12.1338 5.02179 12.1145 4.98971C12.0952 4.95762 12.0675 4.93168 12.0346 4.91481C12.0017 4.89794 11.9649 4.8908 11.9283 4.89419C11.8917 4.89758 11.8567 4.91136 11.8272 4.93399L11.6688 5.05587C11.5826 5.12231 11.5025 5.19665 11.4294 5.27796C11.3721 5.14924 11.3014 5.02721 11.2186 4.91399L11.1144 4.77149C11.0959 4.74627 11.072 4.72579 11.0445 4.71169C11.017 4.69759 10.9867 4.69024 10.956 4.69024C10.9252 4.69024 10.8949 4.69759 10.8674 4.71169C10.8399 4.72579 10.816 4.74627 10.7975 4.77149L10.6934 4.91399C10.6106 5.02721 10.5399 5.14925 10.4825 5.27799C10.4094 5.19667 10.3293 5.12232 10.2431 5.05587L10.0847 4.93399C10.0553 4.91136 10.0203 4.89758 9.98365 4.89419C9.94702 4.8908 9.9102 4.89794 9.87731 4.91481C9.84442 4.93168 9.81675 4.95762 9.79742 4.98971C9.77809 5.02179 9.76785 5.05877 9.76785 5.09649V5.64529C9.7678 5.84179 9.79867 6.037 9.85928 6.22341L9.95624 6.52175C9.91045 6.69232 9.90097 6.871 9.92846 7.04566C9.95594 7.22032 10.0197 7.38686 10.1155 7.53399H9.96587C9.91335 7.53399 9.86298 7.5554 9.82584 7.59349C9.78871 7.63158 9.76785 7.68325 9.76785 7.73712V8.35665C9.73584 8.34997 9.37181 8.34649 9.37181 8.34649V7.22931C9.37168 7.11228 9.33221 6.99888 9.26007 6.90823C9.18793 6.81757 9.08752 6.75521 8.97577 6.73165V6.46759C8.97561 6.31949 8.91818 6.17751 8.81609 6.07279C8.714 5.96807 8.57559 5.90916 8.43122 5.90899H3.57974C3.43537 5.90916 3.29695 5.96807 3.19487 6.07279C3.09278 6.17751 3.03535 6.31949 3.03519 6.46759V6.73165C2.92344 6.75521 2.82303 6.81757 2.75089 6.90823C2.67874 6.99888 2.63928 7.11228 2.63915 7.22931V8.34649H2.1441C2.01285 8.34665 1.88702 8.4002 1.79422 8.4954C1.70141 8.5906 1.6492 8.71967 1.64905 8.85431V9.97149H1.25301V6.68656C1.34401 6.65362 1.4258 6.59842 1.4913 6.52573C1.5568 6.45305 1.60403 6.36508 1.6289 6.26944C1.65378 6.1738 1.65553 6.07339 1.63403 5.9769C1.61252 5.8804 1.5684 5.79075 1.50549 5.7157L2.37252 4.67811L2.56311 5.20032C2.57495 5.23274 2.59466 5.26152 2.62039 5.28393C2.64612 5.30634 2.67701 5.32163 2.71012 5.32835C2.74323 5.33507 2.77746 5.333 2.80957 5.32233C2.84168 5.31166 2.8706 5.29276 2.89358 5.2674L3.97217 4.07724C3.99515 4.05188 4.01144 4.02092 4.01947 3.98729C4.02751 3.95366 4.02703 3.91848 4.01809 3.88509C4.00914 3.85171 3.99202 3.82122 3.96836 3.79653C3.9447 3.77184 3.91527 3.75376 3.88288 3.74401L3.08766 3.50476L2.93734 3.33152C2.87803 3.26316 2.80525 3.20849 2.7238 3.17115C2.64236 3.1338 2.55411 3.11462 2.4649 3.11487C2.37569 3.11512 2.28755 3.13481 2.2063 3.17261C2.12506 3.21042 2.05257 3.26549 1.99363 3.33419C1.93469 3.40288 1.89064 3.48363 1.8644 3.5711C1.83816 3.65856 1.83032 3.75074 1.8414 3.84155C1.85249 3.93235 1.88224 4.0197 1.9287 4.09783C1.97515 4.17595 2.03725 4.24307 2.11088 4.29473L2.149 4.32147L1.15462 5.51148C1.00811 5.48618 0.857672 5.51811 0.73298 5.60098C0.608287 5.68385 0.518395 5.81164 0.481031 5.95915C0.443667 6.10666 0.461544 6.26318 0.531137 6.39783C0.60073 6.53248 0.716986 6.6355 0.856976 6.68656V9.97149H0.658957C0.606439 9.97149 0.556072 9.9929 0.518936 10.031C0.4818 10.0691 0.460938 10.1207 0.460938 10.1746V10.9871C0.460938 11.041 0.4818 11.0927 0.518936 11.1308C0.556072 11.1688 0.606439 11.1902 0.658957 11.1902H12.1441C12.1966 11.1902 12.247 11.1688 12.2841 11.1308C12.3212 11.0927 12.3421 11.041 12.3421 10.9871V7.73712C12.3421 7.68325 12.3212 7.63158 12.2841 7.59349C12.247 7.5554 12.1966 7.53399 12.1441 7.53399ZM2.28066 3.61561C2.30157 3.58743 2.32831 3.56436 2.35895 3.54806C2.3896 3.53177 2.42339 3.52265 2.45789 3.52136C2.46088 3.52136 2.46385 3.52121 2.46682 3.52121C2.49984 3.52117 2.53249 3.52832 2.56261 3.54219C2.59273 3.55605 2.61963 3.57632 2.64155 3.60165L2.82967 3.81833C2.85432 3.84675 2.88626 3.86749 2.92185 3.8782L3.46417 4.04136L2.8219 4.75009L2.63224 4.23045C2.61859 4.18228 2.58969 4.14016 2.55009 4.11073L2.33475 3.95945C2.30853 3.94106 2.28624 3.91738 2.26923 3.88987C2.25222 3.86235 2.24085 3.83157 2.23581 3.7994C2.23077 3.76723 2.23216 3.73435 2.23991 3.70275C2.24766 3.67115 2.2616 3.6415 2.28088 3.61561H2.28066ZM1.055 5.90899C1.09416 5.90899 1.13245 5.92091 1.16501 5.94323C1.19757 5.96555 1.22295 5.99727 1.23794 6.03439C1.25293 6.0715 1.25685 6.11235 1.24921 6.15175C1.24157 6.19115 1.22271 6.22734 1.19502 6.25575C1.16732 6.28416 1.13204 6.3035 1.09363 6.31134C1.05522 6.31918 1.0154 6.31516 0.979217 6.29978C0.943034 6.28441 0.912107 6.25837 0.890348 6.22497C0.86859 6.19157 0.856976 6.15229 0.856976 6.11212C0.857035 6.05827 0.877917 6.00664 0.91504 5.96856C0.952163 5.93048 1.0025 5.90906 1.055 5.90899ZM11.9461 9.15899H10.1639V7.94024H11.9461V9.15899ZM11.748 5.52306V5.64529C11.7481 5.79812 11.7241 5.94996 11.6769 6.09493L11.6053 6.31524H11.5888C11.6103 6.12685 11.6048 5.93626 11.5727 5.74947C11.6234 5.66804 11.6822 5.59217 11.748 5.52306ZM10.956 5.23683C11.1605 5.5546 11.2436 5.93853 11.1896 6.31524H10.7223C10.6683 5.93853 10.7514 5.5546 10.956 5.23683ZM10.1639 5.52306C10.2297 5.59217 10.2885 5.66804 10.3392 5.74947C10.3071 5.93626 10.3017 6.12685 10.3231 6.31524H10.3066L10.235 6.09496C10.1879 5.94997 10.1638 5.79813 10.1639 5.64529V5.52306ZM10.5487 7.43832C10.458 7.34592 10.3898 7.2328 10.3499 7.10821C10.31 6.98362 10.2994 6.8511 10.3189 6.72149H11.593C11.6126 6.8511 11.602 6.98362 11.562 7.10821C11.5221 7.2328 11.454 7.34592 11.3632 7.43832L11.27 7.53399H10.6419L10.5487 7.43832ZM8.87676 7.12774C8.90302 7.12774 8.9282 7.13844 8.94677 7.15749C8.96534 7.17654 8.97577 7.20237 8.97577 7.22931V8.34649H6.59954V7.22931C6.59954 7.20237 6.60997 7.17654 6.62854 7.15749C6.6471 7.13844 6.67229 7.12774 6.69855 7.12774H8.87676ZM3.57974 6.31524H8.43122C8.47059 6.31528 8.50834 6.33135 8.53619 6.35991C8.56403 6.38847 8.57969 6.4272 8.57973 6.46759V6.72149H6.69855C6.5673 6.72165 6.44147 6.7752 6.34866 6.8704C6.25585 6.9656 6.20365 7.09467 6.2035 7.22931V8.34649H5.80746V7.22931C5.80731 7.09467 5.7551 6.9656 5.6623 6.8704C5.56949 6.7752 5.44366 6.72165 5.31241 6.72149H3.43123V6.46759C3.43127 6.4272 3.44693 6.38847 3.47477 6.35991C3.50261 6.33135 3.54037 6.31528 3.57974 6.31524ZM3.03519 7.22931C3.03519 7.20237 3.04562 7.17654 3.06419 7.15749C3.08276 7.13844 3.10794 7.12774 3.1342 7.12774H5.31241C5.33867 7.12774 5.36385 7.13844 5.38242 7.15749C5.40099 7.17654 5.41142 7.20237 5.41142 7.22931V8.34649H3.03519V7.22931ZM2.04509 8.85431C2.04509 8.82737 2.05552 8.80154 2.07409 8.78249C2.09266 8.76344 2.11784 8.75274 2.1441 8.75274H9.66884C9.6951 8.75274 9.72028 8.76344 9.73885 8.78249C9.75741 8.80154 9.76785 8.82737 9.76785 8.85431V9.97149H2.04509V8.85431ZM0.856976 10.3777H2.04509V10.784H0.856976V10.3777ZM2.44113 10.3777H9.76785V10.784H2.44113V10.3777ZM11.9461 10.784H10.1639V9.56524H11.9461V10.784Z" fill="#979797"/>
<path d="M10.7581 8.34656C10.7056 8.34656 10.6552 8.36796 10.6181 8.40605C10.5809 8.44414 10.5601 8.49581 10.5601 8.54968C10.5601 8.60355 10.5809 8.65522 10.6181 8.69331C10.6552 8.73141 10.7056 8.75281 10.7581 8.75281H11.3521C11.4047 8.75281 11.455 8.73141 11.4922 8.69331C11.5293 8.65522 11.5502 8.60355 11.5502 8.54968C11.5502 8.49581 11.5293 8.44414 11.4922 8.40605C11.455 8.36796 11.4047 8.34656 11.3521 8.34656H10.7581Z" fill="#979797"/>
<path d="M5.0154 4.69031H8.97579C9.02831 4.69031 9.07867 4.66891 9.11581 4.63081C9.15295 4.59272 9.17381 4.54105 9.17381 4.48718V2.04968C9.17381 1.99581 9.15295 1.94414 9.11581 1.90605C9.07867 1.86796 9.02831 1.84656 8.97579 1.84656H5.0154C4.96288 1.84656 4.91252 1.86796 4.87538 1.90605C4.83825 1.94414 4.81738 1.99581 4.81738 2.04968V4.48718C4.81738 4.54105 4.83825 4.59272 4.87538 4.63081C4.91252 4.66891 4.96288 4.69031 5.0154 4.69031ZM5.21342 4.18963L6.17827 3.5298L6.48656 3.84604L5.93755 4.28406H5.21342V4.18963ZM6.58263 4.28406L7.77126 3.33572L8.69577 4.28406H6.58263ZM8.77777 2.25281V3.79366L7.9277 2.92167C7.89357 2.88667 7.84816 2.86565 7.79999 2.86258C7.75182 2.8595 7.70421 2.87457 7.66611 2.90497L6.80161 3.59468L6.34354 3.1248C6.31117 3.09159 6.26859 3.07091 6.22303 3.06628C6.17747 3.06165 6.13176 3.07336 6.09367 3.09941L5.21342 3.70139V2.25281H8.77777Z" fill="#979797"/>
<path d="M6.79737 3.11609C6.97508 3.11609 7.11915 2.96831 7.11915 2.78601C7.11915 2.60371 6.97508 2.45593 6.79737 2.45593C6.61965 2.45593 6.47559 2.60371 6.47559 2.78601C6.47559 2.96831 6.61965 3.11609 6.79737 3.11609Z" fill="#979797"/>
</g>
<defs>
<clipPath id="clip0">
<rect width="12.6732" height="13" fill="white" transform="translate(0.0649414 0.0184326)"/>
</clipPath>
</defs>
</svg>
