<svg width="27" height="27" viewBox="0 0 27 27" fill="none" xmlns="http://www.w3.org/2000/svg">
<rect width="27" height="27" rx="5" fill="#55D36A"/>
<path fill-rule="evenodd" clip-rule="evenodd" d="M18.2512 7.88919C17.0132 6.67158 15.3667 6.00068 13.6125 6C9.99811 6 7.05643 8.8896 7.05498 12.4414C7.0545 13.5767 7.35647 14.685 7.93029 15.6619L7 19L10.4762 18.1042C11.434 18.6174 12.5124 18.8878 13.6099 18.8883H13.6126C17.2266 18.8883 20.1686 15.9983 20.17 12.4465C20.1707 10.7253 19.4893 9.10679 18.2512 7.88919ZM13.6126 17.8003H13.6104C12.6324 17.7999 11.6731 17.5418 10.8363 17.054L10.6373 16.938L8.57446 17.4695L9.12508 15.4938L8.99547 15.2912C8.44988 14.4387 8.16172 13.4534 8.16215 12.4418C8.16334 9.48969 10.6084 7.08798 13.6148 7.08798C15.0705 7.08852 16.439 7.64618 17.468 8.65821C18.4971 9.67024 19.0634 11.0155 19.0629 12.4461C19.0616 15.3984 16.6166 17.8003 13.6126 17.8003ZM16.6022 13.7903C16.4383 13.7098 15.6328 13.3204 15.4826 13.2667C15.3324 13.2129 15.2232 13.1861 15.1139 13.3472C15.0047 13.5084 14.6907 13.8709 14.5951 13.9783C14.4996 14.0858 14.404 14.0992 14.2401 14.0186C14.0763 13.9381 13.5483 13.7681 12.9225 13.2197C12.4354 12.793 12.1066 12.2658 12.011 12.1047C11.9154 11.9436 12.0008 11.8564 12.0828 11.7762C12.1565 11.7041 12.2467 11.5882 12.3286 11.4942C12.4105 11.4002 12.4378 11.3331 12.4924 11.2257C12.5471 11.1182 12.5198 11.0242 12.4788 10.9437C12.4378 10.8631 12.1102 10.0708 11.9736 9.74857C11.8406 9.43471 11.7055 9.47718 11.605 9.47226C11.5095 9.4676 11.4002 9.46659 11.2909 9.46659C11.1817 9.46659 11.0042 9.50689 10.854 9.66801C10.7038 9.82915 10.2806 10.2186 10.2806 11.0108C10.2806 11.803 10.8677 12.5684 10.9496 12.6758C11.0315 12.7833 12.105 14.4091 13.7486 15.1063C14.1395 15.2721 14.4447 15.3711 14.6827 15.4454C15.0752 15.5678 15.4324 15.5505 15.7147 15.5091C16.0295 15.4629 16.6841 15.1197 16.8207 14.7437C16.9572 14.3678 16.9572 14.0455 16.9162 13.9784C16.8753 13.9112 16.766 13.8709 16.6022 13.7903Z" fill="white"/>
</svg>
